C:\Users\israe\Dropbox\PhDWork\ExperimentalData\subject9\145\P9S145W05_filtered35.mot
nRows=13
nColumns=28

name C:\Users\israe\Dropbox\PhDWork\ExperimentalData\subject9\145\P9S145W05_filtered35.mot
datacolumns 28
datarows 13
range 0.5620000000 0.5740000000
endheader
time	ground_force_1_vx	ground_force_1_vy	ground_force_1_vz	ground_force_1_px	ground_force_1_py	ground_force_1_pz	ground_moment_1_mx	ground_moment_1_my	ground_moment_1_mz	ground_force_2_vx	ground_force_2_vy	ground_force_2_vz	ground_force_2_px	ground_force_2_py	ground_force_2_pz	ground_moment_2_mx	ground_moment_2_my	ground_moment_2_mz	ground_force_3_vx	ground_force_3_vy	ground_force_3_vz	ground_force_3_px	ground_force_3_py	ground_force_3_pz	ground_moment_3_mx	ground_moment_3_my	ground_moment_3_mz
        0.5620000000	      -31.5688543227	      697.2020354521	       49.1096143297	        0.1988394961	        0.0000558755	       -0.3004071324	      -67.6041992340	      -14.5720760720	       73.5597113483	       -0.0000006436	        0.0000003288	       -0.0000006623	        0.2029003516	       -0.0000795827	        0.4543649445	       -0.0000000773	        0.0000001952	        0.0000000130	        0.0000000000	        0.0000000000	        0.0000000000	        0.2076431971	        0.0000770316	        1.3583900146	       -0.0000000000	       -0.0000000000	       -0.0000000000	
        0.5630000000	      -31.5074379546	      701.7374966362	       50.3071426256	        0.1988394961	        0.0000558755	       -0.3004071324	      -68.1380298357	      -14.7635068119	       74.0084910956	       -0.0000012946	        0.0000037261	       -0.0000036357	        0.2029003516	       -0.0000795827	        0.4543649445	        0.0000003056	        0.0000002399	       -0.0000002067	        0.0000000000	        0.0000000000	        0.0000000000	        0.2076431971	        0.0000770316	        1.3583900146	       -0.0000000000	       -0.0000000000	       -0.0000000000	
        0.5640000000	      -31.4355640595	      706.2808124569	       51.4983294498	        0.1988394961	        0.0000558755	       -0.3004071324	      -68.6794921926	      -14.9549562422	       74.4593550681	       -0.0000021343	        0.0000083876	       -0.0000076812	        0.2029003516	       -0.0000795827	        0.4543649445	        0.0000008415	        0.0000002838	       -0.0000005113	        0.0000000000	        0.0000000000	        0.0000000000	        0.2076431971	        0.0000770316	        1.3583900146	       -0.0000000000	       -0.0000000000	       -0.0000000000	
        0.5650000000	      -31.3535518009	      710.8392673987	       52.6836727351	        0.1988394961	        0.0000558755	       -0.3004071324	      -69.2282218810	      -15.1467121521	       74.9122465844	       -0.0000031744	        0.0000144816	       -0.0000129326	        0.2029003516	       -0.0000795827	        0.4543649445	        0.0000015535	        0.0000003221	       -0.0000009130	        0.0000000000	        0.0000000000	        0.0000000000	        0.2076431971	        0.0000770316	        1.3583900146	       -0.0000000000	       -0.0000000000	       -0.0000000000	
        0.5660000000	      -31.2621806345	      715.4200883079	       53.8643094232	        0.1988394961	        0.0000558755	       -0.3004071324	      -69.7838775121	      -15.3390027735	       75.3669486716	       -0.0000044139	        0.0000221235	       -0.0000194760	        0.2029003516	       -0.0000795827	        0.4543649445	        0.0000024590	        0.0000003489	       -0.0000014205	        0.0000000000	        0.0000000000	        0.0000000000	        0.2076431971	        0.0000770316	        1.3583900146	       -0.0000000000	       -0.0000000000	       -0.0000000000	
        0.5670000000	      -31.1631142561	      720.0298696829	       55.0414692443	        0.1988394961	        0.0000558755	       -0.3004071324	      -70.3462121545	      -15.5319297558	       75.8233205876	       -0.0000058325	        0.0000313403	       -0.0000273189	        0.2029003516	       -0.0000795827	        0.4543649445	        0.0000035662	        0.0000003561	       -0.0000020370	       -0.0000000000	        0.0000000000	        0.0000000000	        0.2076431971	        0.0000770316	        1.3583900146	       -0.0000000000	       -0.0000000000	       -0.0000000000	
        0.5680000000	      -31.0584873687	      724.6745111801	       56.2156937653	        0.1988394961	        0.0000558755	       -0.3004071324	      -70.9150094149	      -15.7253782020	       76.2814344049	       -0.0000073842	        0.0000420266	       -0.0000363521	        0.2029003516	       -0.0000795827	        0.4543649445	        0.0000048683	        0.0000003339	       -0.0000027574	       -0.0000000000	        0.0000000000	        0.0000000000	        0.2076431971	        0.0000770316	        1.3583900146	       -0.0000000000	        0.0000000000	       -0.0000000000	
        0.5690000000	      -30.9502785534	      729.3570717219	       57.3863334757	        0.1988394961	        0.0000558755	       -0.3004071324	      -71.4898865788	      -15.9190244955	       76.7414472999	       -0.0000089886	        0.0000538912	       -0.0000463049	        0.2029003516	       -0.0000795827	        0.4543649445	        0.0000063372	        0.0000002703	       -0.0000035642	       -0.0000000000	        0.0000000000	        0.0000000000	        0.2076431971	        0.0000770316	        1.3583900146	       -0.0000000000	        0.0000000000	       -0.0000000000	
        0.5700000000	      -30.8402208382	      734.0755577833	       58.5518063464	        0.1988394961	        0.0000558755	       -0.3004071324	      -72.0702042338	      -16.1124695591	       77.2034136163	       -0.0000105225	        0.0000663963	       -0.0000566938	        0.2029003516	       -0.0000795827	        0.4543649445	        0.0000079164	        0.0000001517	       -0.0000044238	       -0.0000000000	        0.0000000000	        0.0000000000	        0.2076431971	        0.0000770316	        1.3583900146	       -0.0000000000	        0.0000000000	       -0.0000000000	
        0.5710000000	      -30.7299860014	      738.8226806204	       59.7105548331	        0.1988394961	        0.0000558755	       -0.3004071324	      -72.6551800913	      -16.3053578943	       77.6671001920	       -0.0000118109	        0.0000786904	       -0.0000667656	        0.2029003516	       -0.0000795827	        0.4543649445	        0.0000095122	       -0.0000000371	       -0.0000052818	       -0.0000000000	        0.0000000000	        0.0000000000	        0.2076431971	        0.0000770316	        1.3583900146	       -0.0000000000	        0.0000000000	       -0.0000000000	
        0.5720000000	      -30.6210945804	      743.5875948683	       60.8620948862	        0.1988394961	        0.0000558755	       -0.3004071324	      -73.2440509577	      -16.4974035670	       78.1318676620	       -0.0000126186	        0.0000895380	       -0.0000754402	        0.2029003516	       -0.0000795827	        0.4543649445	        0.0000109851	       -0.0000003119	       -0.0000060583	       -0.0000000000	        0.0000000000	        0.0000000000	        0.2076431971	        0.0000770316	        1.3583900146	       -0.0000000000	        0.0000000000	       -0.0000000000	
        0.5730000000	      -30.5147679713	      748.3595274436	       62.0075542093	        0.1988394961	        0.0000558755	       -0.3004071324	      -73.8361903350	      -16.6883653491	       78.5968217649	       -0.0000126434	        0.0000972526	       -0.0000812549	        0.2029003516	       -0.0000795827	        0.4543649445	        0.0000121409	       -0.0000006880	       -0.0000066430	       -0.0000000000	        0.0000000000	       -0.0000000000	        0.2076431971	        0.0000770316	        1.3583900146	       -0.0000000000	        0.0000000000	       -0.0000000000	
        0.5740000000	      -30.4120001876	      753.1313029369	       63.1495104017	        0.1988394961	        0.0000558755	       -0.3004071324	      -74.4310589490	      -16.8780063029	       79.0611358400	       -0.0000115123	        0.0000996386	       -0.0000823187	        0.2029003516	       -0.0000795827	        0.4543649445	        0.0000127226	       -0.0000011786	       -0.0000068910	       -0.0000000000	        0.0000000000	       -0.0000000000	        0.2076431971	        0.0000770316	        1.3583900146	       -0.0000000000	        0.0000000000	       -0.0000000000	
